# xmcd
#
# Track frame offsets: 
#        150
#        22650
#        39956
#        54118
#        83632
#        96872
#        114638
#        126557
#        141374
#        148954
#        158314
#
# Disc length: 2331 seconds
#
# Revision: 0
# Processed by: cddbd v1.5.1PL2 Copyright (c) Steve Scherf et al.
# Submitted via: ExactAudioCopy v0.95b4
#
DISCID=8709190b
DTITLE=Burt, Kevin "B.F" - My Babies Got The Blues
DYEAR=1900
DGENRE=Blues
TTITLE0=Wheels on the Bus
TTITLE1=Old MacDonald
TTITLE2=Nursery Rhyme Medley
TTITLE3=Strange Things
TTITLE4=Funky Bluesy ABC's
TTITLE5=Little Red Rooster
TTITLE6=Love My Babies
TTITLE7=Ring Around the Rosey
TTITLE8=You are my Sunshine
TTITLE9=Twinkle Twinkle Little Star
TTITLE10=Your Smile
EXTD=
EXTT0=
EXTT1=
EXTT2=
EXTT3=
EXTT4=
EXTT5=
EXTT6=
EXTT7=
EXTT8=
EXTT9=
EXTT10=
PLAYORDER=
